<?xml version="1.0" encoding="UTF-8" standalone="no"?>
<!-- Created with Inkscape (http://www.inkscape.org/) -->

<svg
   width="128"
   height="128"
   viewBox="0 0 33.866666 33.866667"
   version="1.1"
   id="svg1"
   inkscape:version="1.4.3 (0d15f75042, 2025-12-25)"
   sodipodi:docname="achievement-secret.svg"
   xmlns:inkscape="http://www.inkscape.org/namespaces/inkscape"
   xmlns:sodipodi="http://sodipodi.sourceforge.net/DTD/sodipodi-0.dtd"
   xmlns:xlink="http://www.w3.org/1999/xlink"
   xmlns="http://www.w3.org/2000/svg"
   xmlns:svg="http://www.w3.org/2000/svg">
  <sodipodi:namedview
     id="namedview1"
     pagecolor="#000000"
     bordercolor="#000000"
     borderopacity="0.25"
     inkscape:showpageshadow="2"
     inkscape:pageopacity="0.0"
     inkscape:pagecheckerboard="true"
     inkscape:deskcolor="#d1d1d1"
     inkscape:document-units="mm"
     showgrid="true"
     inkscape:zoom="4"
     inkscape:cx="4.375"
     inkscape:cy="81.875"
     inkscape:window-width="2194"
     inkscape:window-height="1162"
     inkscape:window-x="0"
     inkscape:window-y="0"
     inkscape:window-maximized="1"
     inkscape:current-layer="svg1">
    <inkscape:grid
       id="grid1"
       units="px"
       originx="0"
       originy="0"
       spacingx="4.2333333"
       spacingy="4.2333333"
       empcolor="#0099e5"
       empopacity="0.30196078"
       color="#0099e5"
       opacity="0.14901961"
       empspacing="4"
       enabled="true"
       visible="true" />
  </sodipodi:namedview>
  <defs
     id="defs1">
    <linearGradient
       id="linearGradient1"
       inkscape:collect="always">
      <stop
         style="stop-color:#1a1a1a;stop-opacity:1"
         offset="0"
         id="stop1" />
      <stop
         style="stop-color:#333333;stop-opacity:1"
         offset="1"
         id="stop2" />
    </linearGradient>
    <inkscape:path-effect
       effect="powermask"
       id="path-effect3"
       is_visible="true"
       lpeversion="1"
       uri="#mask-powermask-path-effect2"
       invert="false"
       hide_mask="false"
       background="true"
       background_color="#ffffffff" />
    <inkscape:path-effect
       effect="powermask"
       id="path-effect2"
       is_visible="true"
       lpeversion="1"
       uri="#mask-powermask-path-effect2"
       invert="false"
       hide_mask="false"
       background="true"
       background_color="#ffffffff" />
    <inkscape:path-effect
       effect="powermask"
       id="path-effect11"
       is_visible="true"
       lpeversion="1"
       uri="#mask-powermask-path-effect11"
       invert="false"
       hide_mask="false"
       background="true"
       background_color="#ffffffff" />
    <mask
       maskUnits="userSpaceOnUse"
       id="mask-powermask-path-effect3">
      <path
         id="path2"
         mask="none"
         style="fill:#000000;stroke-width:0.264583"
         d="M 12.698966,4.9883261 4.9883261,12.698966 26.155509,33.866151 4.9883261,55.033333 12.698966,62.743974 33.866151,41.576789 55.033333,62.743974 62.743974,55.033333 41.576789,33.866151 62.743974,12.698966 55.033333,4.9883261 33.866151,26.155509 Z" />
    </mask>
    <mask
       maskUnits="userSpaceOnUse"
       id="mask-powermask-path-effect2">
      <path
         id="path3"
         mask="none"
         style="fill:#000000;stroke-width:0.264583"
         d="M 12.698966,4.9883261 4.9883261,12.698966 26.155509,33.866151 4.9883261,55.033333 12.698966,62.743974 33.866151,41.576789 55.033333,62.743974 62.743974,55.033333 41.576789,33.866151 62.743974,12.698966 55.033333,4.9883261 33.866151,26.155509 Z" />
    </mask>
    <linearGradient
       inkscape:collect="always"
       xlink:href="#linearGradient1"
       id="linearGradient2"
       x1="16.933332"
       y1="33.866665"
       x2="16.933332"
       y2="0"
       gradientUnits="userSpaceOnUse" />
  </defs>
  <rect
     style="fill:url(#linearGradient2);stroke-width:0.264583;fill-opacity:1"
     id="rect1"
     width="33.866665"
     height="33.866665"
     x="0"
     y="0" />
  <rect
     style="fill:#f9f9f9;stroke-width:0.267263"
     id="rect19"
     width="2.2675066"
     height="2.2675066"
     x="15.79958"
     y="25.388628" />
  <path
     style="fill:none;stroke:#ffffff;stroke-width:2.265;stroke-opacity:1;stroke-dasharray:none"
     d="m 16.933333,23.09058 c 0,0 0,-1.091282 0,-1.923915 0,-0.443927 0.108561,-1.341164 0.437284,-1.902866 0.640579,-1.094582 1.830309,-1.614616 2.815564,-2.559037 0.70539,-0.676155 1.29558,-1.510397 1.656586,-2.418381 0.197778,-0.497441 0.26665,-1.051326 0.249941,-1.586382 -0.02329,-0.745915 -0.173397,-1.507741 -0.485755,-2.185505 C 21.310246,9.8706901 20.861558,9.2822811 20.328413,8.8150818 19.802138,8.3539026 19.160868,8.0134108 18.499738,7.784154 18.000494,7.6110337 17.46174,7.5406231 16.933332,7.5406231 c -1.887172,0 -3.954279,0 -3.954279,0"
     id="path4"
     sodipodi:nodetypes="csasaaaaasc" />
</svg>
